PathFileType	3	(X/Y/Z)	D:\minhoCalibration\240510\subject2_KPNP\preferred\preferred05.trc
DataRate	CameraRate	NumFrames	NumMarkers	Units	OrigDataRate	OrigDataStartFrame	OrigNumFrames
200.0	200.0	18	10	mm	200.0	1010	244	
Frame#	Time	Left_Ankle_Outer1			Left_Ankle_Inner1			Left_Knee_Outer1			Left_Knee_Inner1			Left_Wrist1			Right_Wrist1			Right_Knee_Inner1			Right_Knee_Outer1			Right_Ankle_Inner1			Right_Ankle_Outer1			
		X1	Y1	Z1	X2	Y2	Z2	X3	Y3	Z3	X4	Y4	Z4	X5	Y5	Z5	X6	Y6	Z6	X7	Y7	Z7	X8	Y8	Z8	X9	Y9	Z9	X10	Y10	Z10	
1010	5.04	-555.05835	96.440758	-754.83765	-569.6098	96.888741	-699.82373	-365.62918	510.08557	-703.83734	-435.7576	491.80194	-635.1236	-433.33142	991.28595	-756.14301	-775.32721	981.8064	-735.99341	-732.82318	479.96591	-740.81458	-813.65479	510.57166	-770.55658	-741.25189	105.16518	-901.04498	-831.36609	121.77596	-934.10913
1011	5.045	-553.94415	97.596413	-756.68854	-568.90924	97.411346	-701.68762	-365.89255	510.85587	-703.73743	-435.96469	492.4115	-635.00677	-435.65811	991.25543	-756.22852	-777.85474	981.68475	-739.97089	-734.49463	479.56705	-743.6731	-814.258	510.4801	-775.10687	-742.04449	104.47421	-902.37054	-832.49799	120.60294	-935.06885
1012	5.05	-552.53796	98.710182	-759.32312	-567.56085	97.979782	-705.4101	-366.50436	511.55789	-703.5592	-436.31036	492.99451	-634.93298	-437.83585	991.36188	-756.53821	-780.15326	981.48145	-744.06818	-735.73126	479.53497	-746.93195	-815.58398	510.39581	-778.6264	-742.88892	103.76176	-903.48016	-833.21515	119.60732	-935.70056
1013	5.055	-550.82092	99.432083	-762.3869	-566.74451	99.226807	-707.33032	-367.0864	512.39447	-703.30829	-436.96039	493.58575	-634.86163	-439.95016	991.52386	-756.85785	-782.27185	981.60168	-747.78149	-736.43939	479.62036	-750.4209	-817.67529	509.88602	-780.01862	-743.72504	103.02761	-904.4397	-834.08484	118.48997	-936.59656
1014	5.06	-548.98517	99.912376	-765.7934	-566.52985	99.478714	-711.14374	-367.74402	513.35986	-702.95905	-437.83029	494.16998	-634.82916	-442.75327	991.6991	-756.78204	-784.38696	981.06451	-753.10431	-738.49487	479.84036	-752.8515	-818.54315	509.69296	-783.83014	-744.17706	102.35948	-905.40656	-834.71753	117.26414	-937.22467
1015	5.065	-547.02216	100.63816	-769.47443	-565.66925	100.18868	-714.73285	-368.18909	514.38544	-702.41718	-438.89041	494.79056	-635.03259	-445.14691	991.99695	-757.00714	-786.7699	980.82605	-755.20532	-739.53839	480.08713	-755.6059	-820.13623	509.48383	-785.57251	-744.70959	101.65388	-906.2066	-835.31799	116.25057	-937.97473
1016	5.07	-544.85345	101.49799	-773.29169	-564.12262	101.26011	-719.13043	-368.65494	515.65234	-701.7403	-440.18079	495.32773	-635.32446	-447.29855	992.39172	-757.18811	-789.06049	980.24628	-760.61157	-740.82874	479.96469	-757.84753	-821.01459	509.2894	-789.06702	-744.95544	101.04211	-907.01526	-835.97229	115.24223	-938.72101
1017	5.075	-542.50574	102.43581	-777.17474	-563.35858	101.86108	-722.64764	-369.12634	516.88757	-701.10822	-441.65976	495.79877	-635.81555	-449.93488	992.73053	-757.67114	-791.32965	980.1582	-763.91052	-742.06036	479.99518	-759.80444	-822.08801	508.888	-791.60626	-745.33215	100.45679	-907.66425	-836.26282	114.27921	-939.26062
1018	5.08	-540.12421	103.35824	-781.11792	-561.60004	102.6451	-727.82892	-369.88928	518.07349	-700.4873	-443.26624	496.33582	-636.24506	-452.04761	993.25165	-757.96161	-793.6004	979.99304	-767.58899	-743.18219	480.22382	-761.95752	-823.45435	508.55606	-793.75098	-745.52612	99.897369	-908.33984	-836.66962	113.44564	-939.89282
1019	5.085	-537.56433	104.14588	-785.09351	-560.6687	103.45436	-731.11359	-370.66998	519.34265	-699.82855	-445.06305	496.78534	-636.87378	-454.42941	993.66498	-758.40265	-796.00867	979.56519	-770.83112	-744.56458	480.57013	-764.41376	-824.44299	508.42859	-796.02252	-745.68958	99.29686	-908.89758	-836.86664	112.58882	-940.43518
1020	5.09	-534.96075	104.97977	-788.96533	-559.26971	104.27856	-734.07068	-371.44879	520.63385	-699.2691	-446.89682	497.32953	-637.53992	-456.65598	994.00214	-759.00629	-797.95471	979.63153	-775.49878	-745.36639	480.49289	-765.98157	-825.81879	508.28247	-797.51105	-745.76147	98.757767	-909.39771	-836.78558	111.65783	-940.82568
1021	5.095	-532.37628	105.78394	-792.68414	-557.69562	105.0229	-738.42047	-372.29749	521.94342	-698.76465	-449.0163	497.42017	-640.12048	-458.7933	994.54193	-759.60217	-799.78748	979.74854	-778.50989	-746.25562	480.52686	-768.14197	-825.95734	508.05832	-801.51123	-745.73529	98.2575	-909.82922	-836.93097	110.99831	-941.29443
1022	5.1	-529.61957	106.55993	-796.38837	-556.16919	105.91725	-742.93256	-373.21725	523.29846	-698.38177	-450.97714	498.32034	-639.46649	-460.98212	995.12579	-760.20032	-801.87238	979.74554	-781.52576	-747.18854	480.66132	-769.94196	-827.29547	507.94965	-802.78046	-745.7312	97.86586	-910.1546	-837.04309	110.34142	-941.91376
1023	5.105	-526.95557	107.33347	-799.97559	-554.58356	106.81034	-746.72937	-374.47031	524.53345	-697.97803	-452.73474	498.53992	-642.53613	-463.17358	995.75928	-760.81329	-804.23877	979.75452	-784.65472	-748.66058	480.90775	-771.1521	-827.63391	508.04352	-805.97461	-745.70581	97.516045	-910.50806	-836.94263	109.68296	-942.29138
1024	5.11	-524.2135	108.00805	-803.36945	-553.64673	104.30961	-757.33582	-375.2587	525.95392	-697.75616	-455.60281	499.31946	-641.51569	-465.30322	996.40033	-761.43079	-806.41693	979.83789	-789.13135	-749.48047	481.18634	-773.01208	-828.46613	508.07233	-808.09253	-745.59589	97.126198	-910.93915	-836.81995	109.16218	-942.66357
1025	5.115	-521.52264	108.72061	-806.67792	-552.3913	104.54276	-761.55896	-376.6889	527.10229	-697.43109	-457.72589	499.84897	-642.87695	-467.37308	997.08795	-762.02301	-808.38617	980.00867	-791.71967	-750.49292	481.41006	-774.50818	-829.29266	508.21085	-809.96399	-745.72559	96.754715	-911.25476	-836.94897	108.7475	-943.21503
1026	5.12	-518.78314	109.40436	-809.8349	-549.07861	107.47212	-760.27472	-377.94254	528.37579	-697.2049	-459.87329	500.38721	-644.24738	-469.87378	997.71393	-762.43146	-810.33496	979.93689	-795.06189	-751.61298	481.638	-775.94061	-829.85388	508.39484	-812.38898	-745.83801	96.276871	-911.4621	-836.86957	108.28658	-943.75543
1027	5.125	-516.13776	109.88948	-812.84918	-548.11853	107.53287	-763.26239	-379.36206	529.51251	-697.13745	-462.06912	500.89963	-645.57806	-471.36728	998.57214	-763.2464	-811.76788	980.02765	-797.48755	-752.16974	481.46695	-777.52924	-830.07166	508.5799	-815.24768	-745.91925	96.152344	-911.81311	-836.91656	107.93674	-944.15887
